<svg xmlns="http://www.w3.org/2000/svg" width="28" height="23" viewBox="0 0 28 23">
    <path fill="#FFF" fill-rule="evenodd" d="M21.448 22.746c.376.262.86.328 1.291.167a1.34 1.34 0 0 0 .845-.966C24.598 17.25 27.057 5.363 27.98 1.09a.89.89 0 0 0-.303-.871.945.945 0 0 0-.93-.161C21.855 1.842 6.79 7.414.633 9.66A.951.951 0 0 0 0 10.58c.014.407.292.76.692.879 2.762.814 6.386 1.947 6.386 1.947s1.694 5.042 2.578 7.607c.11.322.366.575.703.662.336.087.695-.004.946-.238l3.612-3.361s4.167 3.012 6.531 4.671zM8.603 12.767l1.96 6.37.434-4.034L22.88 4.54a.316.316 0 0 0 .039-.433.335.335 0 0 0-.439-.074L8.603 12.767z"/>
</svg>
