<svg width="73" height="63" viewBox="0 0 73 63" fill="none" xmlns="http://www.w3.org/2000/svg">
<path fill-rule="evenodd" clip-rule="evenodd" d="M21.2613 49.3359V57.0666L17.5727 57.0495C17.5705 54.5364 17.5694 52.024 17.5672 49.5099L17.5384 48.4561C17.5372 46.937 16.6151 45.7924 15.2111 45.6805C14.8895 45.6556 14.5817 45.6866 14.2923 45.7714C14.1736 45.7991 14.0572 45.8373 13.9419 45.8844C13.6031 46.024 13.292 46.2406 13.0569 46.5226C12.9426 46.6605 12.8506 46.8079 12.7768 46.9647C12.5961 47.3414 12.5184 47.7686 12.4863 48.2029C12.4769 48.3215 12.4713 48.4412 12.468 48.5608C12.4619 48.7276 12.4619 48.8938 12.4619 49.0561C12.4647 51.7209 12.4658 54.3846 12.468 57.0484H8.79219C8.79441 54.3846 8.79662 51.7209 8.79884 49.0561C8.79884 48.8938 8.79773 48.7276 8.79219 48.5608C8.78886 48.4423 8.78276 48.3237 8.77389 48.2051C8.74117 47.7697 8.6641 47.3414 8.48444 46.9647C8.40958 46.8079 8.31698 46.6605 8.20331 46.5226C7.9682 46.2406 7.65768 46.024 7.31777 45.8844C7.20354 45.8373 7.08599 45.7991 6.96843 45.7714C6.67953 45.6866 6.37068 45.6556 6.04907 45.6805C4.64507 45.7924 3.72293 46.937 3.72182 48.4561L3.69299 49.5099C3.69077 52.024 3.6891 54.5364 3.68689 57.0495L0 57.0666V49.3359C0.001109 48.9675 0.00665403 48.5963 0.0249526 48.2268C0.0288341 48.1453 0.0343791 48.0655 0.0388152 47.9852C0.173559 45.9581 0.977033 44.2328 2.75255 43.1747C4.29018 42.2578 6.30358 41.9714 8.02199 42.5043C9.12267 42.8467 9.84242 43.5054 10.5904 44.3503L10.6304 44.3991L10.6697 44.3503C11.4178 43.5054 12.1369 42.8467 13.2387 42.5043C14.9566 41.9714 16.97 42.2578 18.5076 43.1747C20.2826 44.2328 21.0872 45.9581 21.2219 47.9852C21.2269 48.0655 21.2313 48.1453 21.2347 48.2268C21.253 48.5963 21.2591 48.9675 21.2613 49.3359" fill="#ECECEC"/>
<path fill-rule="evenodd" clip-rule="evenodd" d="M69.1542 46.372V52.3531C69.1542 53.9049 70.2759 53.9321 72.4058 53.819V57.1819C67.3143 57.7581 65.4429 56.2927 65.4429 52.3531V46.372H62.9404V42.8096H65.4429V41.0589L69.1542 37.342V42.8096H72.4058V46.372H69.1542Z" fill="#ECECEC"/>
<path fill-rule="evenodd" clip-rule="evenodd" d="M33.4639 42.7944L30.2816 52.4232L26.557 42.7944H22.5146L28.3951 56.6604C27.707 58.6099 26.6163 59.4371 24.6378 59.4099V62.8471C28.3092 63.046 30.7174 61.2415 32.2062 57.1169L37.4252 42.7944H33.4639Z" fill="#ECECEC"/>
<path fill-rule="evenodd" clip-rule="evenodd" d="M57.1245 57.1169H60.8225V42.7944H57.1245V57.1169Z" fill="#ECECEC"/>
<path fill-rule="evenodd" clip-rule="evenodd" d="M49.6638 52.8746C48.9169 53.6209 47.9709 53.9915 46.8258 53.9915C45.6808 53.997 44.7348 53.6209 43.9879 52.8746C43.2404 52.1012 42.87 51.1294 42.87 49.9533C42.87 48.7771 43.2404 47.8048 43.9879 47.0585C44.7348 46.2851 45.6808 45.9145 46.8258 45.9145C47.9709 45.9145 48.9169 46.2851 49.6638 47.0585C50.4379 47.8048 50.8088 48.7771 50.8088 49.9533C50.8088 51.1294 50.4379 52.1012 49.6638 52.8746M52.443 44.5987C51.0933 43.1383 49.4326 42.3915 47.5084 42.3915C45.5034 42.3915 43.9502 43.079 42.8645 44.4807V37.0591H42.7625V37.0646L39.1665 40.6569V57.1222H42.8645V55.4308C43.9557 56.8325 45.5034 57.52 47.5084 57.52C49.427 57.52 51.0933 56.8059 52.443 55.345C53.8187 53.884 54.5068 52.0796 54.5068 49.9583C54.5068 47.8375 53.8187 46.0596 52.443 44.5987" fill="#ECECEC"/>
<path fill-rule="evenodd" clip-rule="evenodd" d="M56.2339 38.3233L58.9587 35.608L61.6802 38.3338L58.9554 41.0496L56.2339 38.3233Z" fill="#ECECEC"/>
<path fill-rule="evenodd" clip-rule="evenodd" d="M36.2179 0L53.8289 17.5956L47.2281 24.1972H47.2159C44.3885 21.3845 40.5131 19.6366 36.2179 19.6366C31.9228 19.6366 28.0412 21.3845 25.2138 24.1972H25.2022L18.6069 17.5956L36.2179 0" fill="#ECECEC"/>
<path fill-rule="evenodd" clip-rule="evenodd" d="M45.2783 26.1425L36.2238 35.189L36.2211 35.1918L27.1577 26.1425C29.4578 23.82 32.6745 22.3835 36.215 22.3895H36.2183C36.8327 22.3884 37.4371 22.4311 38.0282 22.5136C40.8506 22.9087 43.3769 24.2228 45.2783 26.1425" fill="#ECECEC"/>
</svg>
